<svg viewBox="0 0 324 96" xmlns="http://www.w3.org/2000/svg">
  <defs></defs>
  <g transform="matrix(0.887671, 0.046521, -0.046521, 0.887671, 4.431126, 1.334247)">
    <title>icon</title>
    <path d="M 29.38 95.25 L 116.59 71.11 L 104.19 47.66 L 14.88 71.11 L 29.38 95.25 Z" fill="#327AB6"></path>
    <path d="M 104.19 47.66 L 104.19 24.2 L 14.88 47.66 L 14.88 71.11 L 104.19 47.66 Z" fill="#5A91C3"></path>
    <path d="M 104.19 24.2 L 84.79 0.75 L 0 24.2 L 14.88 47.66 L 104.19 24.2 Z" fill="#7AA5CD"></path>
    <path d="M 19.48 72.61 L 90.94 53.72 L 85.93 76.51 L 30.95 91.72 L 19.48 72.61 Z" fill="#D9D9D9"></path>
    <path d="M 55.76 70.4 L 63.33 73.21" stroke="#938E88" stroke-width="2" stroke-linecap="round" stroke-linejoin="round"></path>
    <path d="M 63.33 70.4 L 55.76 73.21" stroke="#938E88" stroke-width="2" stroke-linecap="round" stroke-linejoin="round"></path>
    <path d="M 90.42 51.27 L 52.09 29.02 C 52.09 29.02 49.51 32.61 50.57 35.59 C 51.63 38.57 53.72 46.22 65.74 41.29 L 72.17 56.16 L 90.42 51.27 Z" fill="#D9D9D9"></path>
    <path d="M 42.66 15.66 L 55.21 26.3 L 94.78 50.13 L 90.42 51.27 L 59.55 33.25 L 52.09 29.02 L 37.94 17.01 L 42.66 15.66 Z" fill="#6BBA20"></path>
    <path d="M 79.52 81.37 L 116.59 71.11 L 115.2 68.49 L 105.37 49.9 L 104.18 47.66 L 104.18 24.2 L 84.79 0.75 L 0 24.2 L 1.94 27.26 L 14.88 47.66 L 14.88 71.11 L 27.79 92.6 L 29.38 95.25 L 32.54 94.37 L 79.52 81.37 Z M 83.66 3.99 L 98.35 23.16 L 16.54 44.44 L 4.87 26.44 L 83.66 3.99 Z M 18.08 46.82 L 100 25.3 L 101 48.49 L 18.08 70.27 L 18.08 46.82 Z M 19.48 72.61 L 102.26 50.75 L 112.62 69.22 L 31 91.75 L 19.48 72.61 Z" fill="white"></path>
    <path d="M 35.82 65.61 L 50.82 61.67 L 44.65 52.99 C 44.65 52.99 40.19 45.32 39.08 41.29 L 18.08 46.82 L 18.08 70.27 L 35.82 65.61 Z" fill="#D9D9D9"></path>
    <path d="M 80.61 34.11 C 80.61 28.456 78.364 23.033 74.366 19.034 C 70.367 15.036 64.944 12.79 59.29 12.79 C 53.636 12.79 48.213 15.036 44.214 19.034 C 40.216 23.033 37.97 28.456 37.97 34.11 C 37.97 34.11 36.15 47.35 59.27 71.2 C 59.27 71.2 81.83 49.98 80.61 34.11 Z M 59.3 42.99 C 57.549 42.992 55.836 42.474 54.379 41.503 C 52.923 40.531 51.787 39.149 51.116 37.531 C 50.445 35.914 50.268 34.134 50.61 32.416 C 50.951 30.698 51.794 29.12 53.032 27.882 C 54.27 26.644 55.848 25.801 57.566 25.46 C 59.284 25.118 61.064 25.295 62.681 25.966 C 64.299 26.637 65.681 27.773 66.653 29.229 C 67.624 30.686 68.142 32.399 68.14 34.15 C 68.14 36.495 67.209 38.743 65.551 40.401 C 63.893 42.059 61.645 42.99 59.3 42.99 Z" fill="#0E1835"></path>
    <path d="M 90.94 53.72 L 94.91 52.67 L 90.8 75.24 L 85.93 76.51 L 90.94 53.72 Z" fill="#6BBA20"></path>
    <path d="M 4.87 26.43 L 37.94 17.01 L 42.66 20.75 C 42.66 20.75 35.71 28.32 38.42 38.75 L 16.54 44.44 L 4.87 26.43 Z" fill="#D9D9D9"></path>
    <path d="M 59.53 70.53 C 66.991 70.53 73.04 68.703 73.04 66.45 C 73.04 64.197 66.991 62.37 59.53 62.37 C 52.069 62.37 46.02 64.197 46.02 66.45 C 46.02 68.703 52.069 70.53 59.53 70.53 Z" stroke="#0E1835" stroke-width="2" stroke-miterlimit="10"></path>
    <path d="M 37.94 17.01 L 42.66 15.66 L 45.54 17.82 L 42.66 20.77 L 37.94 17.01 Z" fill="#6BBA20"></path>
  </g>
  <g transform="matrix(1.246537, 0, 0, 1.246537, -54.509644, -4.169002)">
    <title>seu</title>
    <path d="M 146.08 29.56 C 145.92 29.373 145.733 29.19 145.52 29.01 C 145.307 28.83 145.067 28.653 144.8 28.48 C 144.534 28.307 144.25 28.143 143.95 27.99 C 143.65 27.837 143.334 27.693 143 27.56 C 142.667 27.413 142.317 27.283 141.95 27.17 C 141.583 27.057 141.2 26.96 140.8 26.88 C 140.414 26.787 140.017 26.717 139.61 26.67 C 139.203 26.623 138.787 26.6 138.36 26.6 C 137.267 26.6 136.317 26.703 135.51 26.91 C 134.703 27.117 134.04 27.427 133.52 27.84 C 133 28.253 132.61 28.743 132.35 29.31 C 132.09 29.877 131.96 30.52 131.96 31.24 C 131.96 31.747 132.027 32.2 132.16 32.6 C 132.294 33 132.493 33.347 132.76 33.64 C 133.026 33.933 133.363 34.2 133.77 34.44 C 134.177 34.68 134.653 34.893 135.2 35.08 C 135.76 35.267 136.393 35.457 137.1 35.65 C 137.807 35.843 138.587 36.04 139.44 36.24 C 140.427 36.453 141.347 36.69 142.2 36.95 C 143.053 37.21 143.84 37.493 144.56 37.8 C 145.28 38.107 145.917 38.467 146.47 38.88 C 147.023 39.293 147.493 39.76 147.88 40.28 C 148.266 40.787 148.556 41.38 148.75 42.06 C 148.943 42.74 149.04 43.507 149.04 44.36 C 149.04 45.04 148.973 45.677 148.84 46.27 C 148.706 46.863 148.507 47.413 148.24 47.92 C 147.987 48.413 147.68 48.867 147.32 49.28 C 146.96 49.693 146.547 50.067 146.08 50.4 C 145.614 50.72 145.107 51 144.56 51.24 C 144.013 51.48 143.427 51.68 142.8 51.84 C 142.174 51.987 141.52 52.097 140.84 52.17 C 140.16 52.243 139.454 52.28 138.72 52.28 C 138 52.28 137.287 52.243 136.58 52.17 C 135.873 52.097 135.174 51.987 134.48 51.84 C 133.8 51.68 133.137 51.487 132.49 51.26 C 131.844 51.033 131.214 50.773 130.6 50.48 C 129.987 50.187 129.393 49.857 128.82 49.49 C 128.247 49.123 127.694 48.72 127.16 48.28 L 128.02 46.76 L 128.88 45.24 C 129.094 45.467 129.337 45.693 129.61 45.92 C 129.883 46.147 130.187 46.373 130.52 46.6 C 130.867 46.813 131.233 47.02 131.62 47.22 C 132.007 47.42 132.414 47.613 132.84 47.8 C 133.28 47.987 133.737 48.157 134.21 48.31 C 134.684 48.463 135.174 48.6 135.68 48.72 C 136.187 48.827 136.7 48.907 137.22 48.96 C 137.74 49.013 138.267 49.04 138.8 49.04 C 139.814 49.04 140.714 48.95 141.5 48.77 C 142.287 48.59 142.96 48.32 143.52 47.96 C 144.08 47.587 144.5 47.13 144.78 46.59 C 145.06 46.05 145.2 45.427 145.2 44.72 C 145.2 44.187 145.12 43.707 144.96 43.28 C 144.8 42.853 144.56 42.48 144.24 42.16 C 143.934 41.84 143.55 41.547 143.09 41.28 C 142.63 41.013 142.094 40.773 141.48 40.56 C 140.867 40.347 140.187 40.133 139.44 39.92 C 138.693 39.707 137.88 39.493 137 39.28 C 136.04 39.04 135.157 38.79 134.35 38.53 C 133.544 38.27 132.814 38 132.16 37.72 C 131.507 37.427 130.933 37.09 130.44 36.71 C 129.947 36.33 129.534 35.907 129.2 35.44 C 128.88 34.973 128.64 34.437 128.48 33.83 C 128.32 33.223 128.24 32.547 128.24 31.8 C 128.24 30.893 128.35 30.057 128.57 29.29 C 128.79 28.523 129.12 27.827 129.56 27.2 C 130 26.573 130.523 26.023 131.13 25.55 C 131.737 25.077 132.427 24.68 133.2 24.36 C 133.974 24.04 134.797 23.8 135.67 23.64 C 136.543 23.48 137.467 23.4 138.44 23.4 C 139.08 23.4 139.697 23.433 140.29 23.5 C 140.884 23.567 141.454 23.667 142 23.8 C 142.56 23.933 143.1 24.093 143.62 24.28 C 144.14 24.467 144.64 24.68 145.12 24.92 C 145.6 25.16 146.06 25.423 146.5 25.71 C 146.94 25.997 147.36 26.307 147.76 26.64 L 146.92 28.1 L 146.08 29.56 Z" style="fill: rgb(14, 24, 86);"></path>
    <path d="M 189.714 52.2 C 188.581 52.2 187.537 52.103 186.584 51.91 C 185.63 51.717 184.767 51.427 183.994 51.04 C 183.221 50.64 182.524 50.173 181.904 49.64 C 181.284 49.107 180.741 48.507 180.274 47.84 C 179.807 47.16 179.404 46.437 179.064 45.67 C 178.724 44.903 178.447 44.093 178.234 43.24 C 178.021 42.387 177.861 41.52 177.754 40.64 C 177.647 39.76 177.594 38.867 177.594 37.96 L 177.594 30.78 L 177.594 23.6 L 179.394 23.6 L 181.194 23.6 L 181.194 30.78 L 181.194 37.96 C 181.194 38.653 181.227 39.34 181.294 40.02 C 181.361 40.7 181.461 41.373 181.594 42.04 C 181.741 42.693 181.931 43.313 182.164 43.9 C 182.397 44.487 182.674 45.04 182.994 45.56 C 183.314 46.08 183.691 46.547 184.124 46.96 C 184.557 47.373 185.047 47.733 185.594 48.04 C 186.141 48.347 186.754 48.577 187.434 48.73 C 188.114 48.883 188.861 48.96 189.674 48.96 C 190.501 48.96 191.257 48.883 191.944 48.73 C 192.63 48.577 193.247 48.347 193.794 48.04 C 194.341 47.72 194.831 47.35 195.264 46.93 C 195.697 46.51 196.074 46.04 196.394 45.52 C 196.714 44.987 196.987 44.423 197.214 43.83 C 197.441 43.237 197.621 42.613 197.754 41.96 C 197.901 41.307 198.011 40.647 198.084 39.98 C 198.157 39.313 198.194 38.64 198.194 37.96 L 198.194 30.78 L 198.194 23.6 L 199.994 23.6 L 201.794 23.6 L 201.794 30.78 L 201.794 37.96 C 201.794 38.92 201.737 39.857 201.624 40.77 C 201.511 41.683 201.341 42.573 201.114 43.44 C 200.901 44.293 200.621 45.097 200.274 45.85 C 199.927 46.603 199.514 47.307 199.034 47.96 C 198.554 48.613 198.001 49.2 197.374 49.72 C 196.747 50.24 196.047 50.693 195.274 51.08 C 194.514 51.453 193.671 51.733 192.744 51.92 C 191.817 52.107 190.807 52.2 189.714 52.2 Z" style="fill: rgb(14, 24, 86);"></path>
    <path d="M 173.055 48.8 L 173.055 50.4 L 173.055 52 L 163.415 52 L 153.775 52 L 153.775 37.8 L 153.775 23.6 L 163.235 23.6 L 172.695 23.6 L 172.695 25.2 L 172.695 26.8 L 165.035 26.8 L 157.375 26.8 L 157.375 31.4 L 157.375 36 L 164.035 36 L 170.695 36 L 170.695 37.5 L 170.695 39 L 164.035 39 L 157.375 39 L 157.375 43.9 L 157.375 48.8 L 165.215 48.8 L 173.055 48.8 Z" style="fill: rgb(14, 24, 86);"></path>
  </g>
  <g transform="matrix(1.248266, 0, 0, 1.248266, -57.779545, -5.209447)">
    <title>Guia</title>
    <path d="M 287.501 41.24 L 290.141 31.24 L 292.661 41.24 L 287.501 41.24 Z M 276.701 52 L 284.661 52 L 286.341 46.44 L 293.901 46.44 L 295.621 52 L 303.541 52 L 294.501 23.6 L 285.781 23.6 L 276.701 52 Z" style="fill: rgb(107, 186, 32);"></path>
    <path d="M 266.526 52 L 266.526 37.8 L 266.526 23.6 L 270.426 23.6 L 274.326 23.6 L 274.326 37.8 L 274.326 52 L 270.426 52 L 266.526 52 Z" style="fill: rgb(107, 186, 32);"></path>
    <path d="M 249.199 52.24 C 248.066 52.24 247.013 52.147 246.039 51.96 C 245.066 51.773 244.173 51.493 243.359 51.12 C 242.546 50.747 241.806 50.303 241.139 49.79 C 240.473 49.277 239.879 48.693 239.359 48.04 C 238.853 47.387 238.413 46.687 238.039 45.94 C 237.666 45.193 237.359 44.4 237.119 43.56 C 236.879 42.707 236.699 41.833 236.579 40.94 C 236.459 40.047 236.399 39.133 236.399 38.2 L 236.399 30.9 L 236.399 23.6 L 240.299 23.6 L 244.199 23.6 L 244.199 30.9 L 244.199 38.2 C 244.199 38.667 244.223 39.123 244.269 39.57 C 244.316 40.017 244.386 40.453 244.479 40.88 C 244.573 41.307 244.693 41.71 244.839 42.09 C 244.986 42.47 245.159 42.827 245.359 43.16 C 245.559 43.493 245.786 43.793 246.039 44.06 C 246.293 44.327 246.573 44.56 246.879 44.76 C 247.199 44.947 247.552 45.087 247.939 45.18 C 248.326 45.273 248.746 45.32 249.199 45.32 C 249.666 45.32 250.096 45.273 250.489 45.18 C 250.882 45.087 251.239 44.947 251.559 44.76 C 251.879 44.56 252.166 44.327 252.419 44.06 C 252.672 43.793 252.892 43.493 253.079 43.16 C 253.279 42.813 253.453 42.447 253.599 42.06 C 253.746 41.673 253.866 41.267 253.959 40.84 C 254.052 40.413 254.122 39.98 254.169 39.54 C 254.216 39.1 254.239 38.653 254.239 38.2 L 254.239 30.9 L 254.239 23.6 L 258.139 23.6 L 262.039 23.6 L 262.039 30.9 L 262.039 38.2 C 262.039 39.187 261.972 40.14 261.839 41.06 C 261.706 41.98 261.506 42.867 261.239 43.72 C 260.986 44.573 260.666 45.373 260.279 46.12 C 259.892 46.867 259.439 47.56 258.919 48.2 C 258.399 48.84 257.806 49.41 257.139 49.91 C 256.472 50.41 255.732 50.84 254.919 51.2 C 254.119 51.547 253.242 51.807 252.289 51.98 C 251.336 52.153 250.306 52.24 249.199 52.24 Z" style="fill: rgb(107, 186, 32);"></path>
    <path d="M 226.509 42.48 L 223.889 42.48 L 221.269 42.48 L 221.269 39.68 L 221.269 36.88 L 227.109 36.88 L 232.949 36.88 L 232.949 44.44 L 232.949 52 L 229.729 52 L 226.509 52 L 226.509 47.24 L 226.509 42.48 Z" style="fill: rgb(107, 186, 32);"></path>
    <path d="M 219.509 52.2 C 218.589 52.2 217.689 52.12 216.809 51.96 C 215.929 51.8 215.069 51.56 214.229 51.24 C 213.402 50.907 212.622 50.5 211.889 50.02 C 211.156 49.54 210.469 48.987 209.829 48.36 C 209.189 47.72 208.616 47.017 208.109 46.25 C 207.603 45.483 207.162 44.653 206.789 43.76 C 206.429 42.853 206.159 41.883 205.979 40.85 C 205.799 39.817 205.709 38.72 205.709 37.56 C 205.709 36.56 205.802 35.597 205.989 34.67 C 206.175 33.743 206.455 32.853 206.829 32 C 207.202 31.147 207.646 30.347 208.159 29.6 C 208.672 28.853 209.255 28.16 209.909 27.52 C 210.575 26.867 211.295 26.287 212.069 25.78 C 212.842 25.273 213.669 24.84 214.549 24.48 C 215.429 24.12 216.346 23.85 217.299 23.67 C 218.252 23.49 219.242 23.4 220.269 23.4 C 221.549 23.4 222.769 23.54 223.929 23.82 C 225.089 24.1 226.189 24.52 227.229 25.08 C 228.269 25.627 229.176 26.277 229.949 27.03 C 230.723 27.783 231.362 28.64 231.869 29.6 L 228.969 31.82 L 226.069 34.04 C 225.789 33.48 225.439 32.977 225.019 32.53 C 224.599 32.083 224.109 31.693 223.549 31.36 C 222.989 31.013 222.412 30.753 221.819 30.58 C 221.225 30.407 220.615 30.32 219.989 30.32 C 219.522 30.32 219.076 30.367 218.649 30.46 C 218.222 30.553 217.816 30.693 217.429 30.88 C 217.042 31.067 216.679 31.29 216.339 31.55 C 215.999 31.81 215.682 32.107 215.389 32.44 C 215.109 32.773 214.859 33.14 214.639 33.54 C 214.419 33.94 214.229 34.373 214.069 34.84 C 213.922 35.293 213.812 35.77 213.739 36.27 C 213.666 36.77 213.629 37.293 213.629 37.84 C 213.629 38.4 213.669 38.933 213.749 39.44 C 213.829 39.947 213.949 40.427 214.109 40.88 C 214.269 41.333 214.459 41.757 214.679 42.15 C 214.899 42.543 215.149 42.907 215.429 43.24 C 215.722 43.56 216.042 43.847 216.389 44.1 C 216.736 44.353 217.109 44.573 217.509 44.76 C 217.909 44.933 218.332 45.063 218.779 45.15 C 219.225 45.237 219.695 45.28 220.189 45.28 C 220.815 45.28 221.429 45.203 222.029 45.05 C 222.629 44.897 223.215 44.667 223.789 44.36 C 224.362 44.04 224.909 43.657 225.429 43.21 C 225.949 42.763 226.443 42.253 226.909 41.68 L 226.909 45.48 L 226.909 49.28 C 225.843 50.253 224.693 50.983 223.459 51.47 C 222.226 51.957 220.909 52.2 219.509 52.2 Z" style="fill: rgb(107, 186, 32);"></path>
  </g>
  <g transform="matrix(1.119273, 0, 0, 1.119273, -16.761173, -5.808709)">
    <title>subtext</title>
    <path d="M 129.335 76 L 129.335 65.35 L 130.385 65.35 L 130.385 76 L 129.335 76 Z M 132.218 72.115 C 132.218 71.375 132.368 70.7 132.668 70.09 C 132.978 69.47 133.403 68.975 133.943 68.605 C 134.483 68.235 135.098 68.05 135.788 68.05 C 136.438 68.05 137.018 68.225 137.528 68.575 C 138.048 68.915 138.453 69.33 138.743 69.82 L 138.743 65.05 L 139.763 65.05 L 139.763 74.77 C 139.763 74.91 139.793 75.015 139.853 75.085 C 139.913 75.145 140.003 75.18 140.123 75.19 L 140.123 76 C 139.923 76.03 139.768 76.04 139.658 76.03 C 139.448 76.02 139.263 75.935 139.103 75.775 C 138.943 75.615 138.863 75.44 138.863 75.25 L 138.863 74.485 C 138.553 74.995 138.133 75.4 137.603 75.7 C 137.073 76 136.523 76.15 135.953 76.15 C 135.413 76.15 134.913 76.04 134.453 75.82 C 134.003 75.6 133.608 75.3 133.268 74.92 C 132.938 74.54 132.678 74.11 132.488 73.63 C 132.308 73.14 132.218 72.635 132.218 72.115 Z M 138.743 73.315 L 138.743 70.9 C 138.613 70.54 138.403 70.215 138.113 69.925 C 137.823 69.625 137.493 69.39 137.123 69.22 C 136.763 69.04 136.403 68.95 136.043 68.95 C 135.623 68.95 135.243 69.04 134.903 69.22 C 134.563 69.39 134.268 69.625 134.018 69.925 C 133.778 70.225 133.593 70.565 133.463 70.945 C 133.333 71.325 133.268 71.715 133.268 72.115 C 133.268 72.535 133.338 72.935 133.478 73.315 C 133.628 73.695 133.838 74.035 134.108 74.335 C 134.378 74.625 134.688 74.85 135.038 75.01 C 135.388 75.17 135.768 75.25 136.178 75.25 C 136.438 75.25 136.708 75.2 136.988 75.1 C 137.268 75 137.533 74.865 137.783 74.695 C 138.043 74.515 138.258 74.305 138.428 74.065 C 138.598 73.825 138.703 73.575 138.743 73.315 Z M 145.449 76.15 C 144.889 76.15 144.369 76.045 143.889 75.835 C 143.409 75.615 142.994 75.32 142.644 74.95 C 142.294 74.57 142.019 74.135 141.819 73.645 C 141.629 73.155 141.534 72.63 141.534 72.07 C 141.534 71.34 141.699 70.67 142.029 70.06 C 142.369 69.45 142.834 68.965 143.424 68.605 C 144.014 68.235 144.684 68.05 145.434 68.05 C 146.204 68.05 146.874 68.235 147.444 68.605 C 148.024 68.975 148.479 69.465 148.809 70.075 C 149.139 70.675 149.304 71.335 149.304 72.055 C 149.304 72.135 149.304 72.215 149.304 72.295 C 149.304 72.365 149.299 72.42 149.289 72.46 L 142.599 72.46 C 142.649 73.02 142.804 73.52 143.064 73.96 C 143.334 74.39 143.679 74.735 144.099 74.995 C 144.529 75.245 144.994 75.37 145.494 75.37 C 146.004 75.37 146.484 75.24 146.934 74.98 C 147.394 74.72 147.714 74.38 147.894 73.96 L 148.779 74.2 C 148.619 74.57 148.374 74.905 148.044 75.205 C 147.714 75.505 147.324 75.74 146.874 75.91 C 146.434 76.07 145.959 76.15 145.449 76.15 Z M 142.569 71.725 L 148.344 71.725 C 148.304 71.155 148.149 70.655 147.879 70.225 C 147.619 69.795 147.274 69.46 146.844 69.22 C 146.424 68.97 145.959 68.845 145.449 68.845 C 144.939 68.845 144.474 68.97 144.054 69.22 C 143.634 69.46 143.289 69.8 143.019 70.24 C 142.759 70.67 142.609 71.165 142.569 71.725 Z M 150.248 73.75 C 150.248 73.26 150.388 72.84 150.668 72.49 C 150.948 72.13 151.333 71.855 151.823 71.665 C 152.323 71.465 152.898 71.365 153.548 71.365 C 153.928 71.365 154.323 71.395 154.733 71.455 C 155.143 71.515 155.508 71.605 155.828 71.725 L 155.828 71.065 C 155.828 70.405 155.633 69.88 155.243 69.49 C 154.853 69.1 154.313 68.905 153.623 68.905 C 153.203 68.905 152.788 68.985 152.378 69.145 C 151.978 69.295 151.558 69.52 151.118 69.82 L 150.728 69.1 C 151.238 68.75 151.738 68.49 152.228 68.32 C 152.718 68.14 153.218 68.05 153.728 68.05 C 154.688 68.05 155.448 68.325 156.008 68.875 C 156.568 69.425 156.848 70.185 156.848 71.155 L 156.848 74.77 C 156.848 74.91 156.878 75.015 156.938 75.085 C 156.998 75.145 157.093 75.18 157.223 75.19 L 157.223 76 C 157.113 76.01 157.018 76.02 156.938 76.03 C 156.858 76.04 156.798 76.04 156.758 76.03 C 156.508 76.02 156.318 75.94 156.188 75.79 C 156.058 75.64 155.988 75.48 155.978 75.31 L 155.963 74.74 C 155.613 75.19 155.158 75.54 154.598 75.79 C 154.038 76.03 153.468 76.15 152.888 76.15 C 152.388 76.15 151.933 76.045 151.523 75.835 C 151.123 75.615 150.808 75.325 150.578 74.965 C 150.358 74.595 150.248 74.19 150.248 73.75 Z M 155.483 74.35 C 155.593 74.21 155.678 74.075 155.738 73.945 C 155.798 73.815 155.828 73.7 155.828 73.6 L 155.828 72.46 C 155.488 72.33 155.133 72.23 154.763 72.16 C 154.403 72.09 154.038 72.055 153.668 72.055 C 152.938 72.055 152.348 72.2 151.898 72.49 C 151.448 72.78 151.223 73.175 151.223 73.675 C 151.223 73.965 151.298 74.24 151.448 74.5 C 151.598 74.75 151.818 74.96 152.108 75.13 C 152.398 75.29 152.738 75.37 153.128 75.37 C 153.618 75.37 154.073 75.275 154.493 75.085 C 154.923 74.895 155.253 74.65 155.483 74.35 Z M 159.097 65.05 L 160.117 65.05 L 160.117 74.23 C 160.117 74.62 160.187 74.875 160.327 74.995 C 160.467 75.115 160.637 75.175 160.837 75.175 C 161.017 75.175 161.197 75.155 161.377 75.115 C 161.557 75.075 161.712 75.035 161.842 74.995 L 162.022 75.82 C 161.832 75.9 161.597 75.965 161.317 76.015 C 161.047 76.065 160.812 76.09 160.612 76.09 C 160.152 76.09 159.782 75.955 159.502 75.685 C 159.232 75.415 159.097 75.045 159.097 74.575 L 159.097 65.05 Z M 170.498 76.15 C 169.848 76.15 169.263 75.98 168.743 75.64 C 168.233 75.3 167.828 74.88 167.528 74.38 L 167.528 79.195 L 166.508 79.195 L 166.508 68.185 L 167.423 68.185 L 167.423 69.7 C 167.733 69.21 168.148 68.815 168.668 68.515 C 169.188 68.205 169.743 68.05 170.333 68.05 C 170.873 68.05 171.368 68.165 171.818 68.395 C 172.268 68.615 172.658 68.915 172.988 69.295 C 173.318 69.675 173.573 70.11 173.753 70.6 C 173.943 71.08 174.038 71.58 174.038 72.1 C 174.038 72.83 173.888 73.505 173.588 74.125 C 173.298 74.735 172.888 75.225 172.358 75.595 C 171.828 75.965 171.208 76.15 170.498 76.15 Z M 170.213 75.25 C 170.643 75.25 171.028 75.165 171.368 74.995 C 171.708 74.815 171.998 74.575 172.238 74.275 C 172.488 73.975 172.678 73.64 172.808 73.27 C 172.938 72.89 173.003 72.5 173.003 72.1 C 173.003 71.68 172.928 71.28 172.778 70.9 C 172.638 70.52 172.433 70.185 172.163 69.895 C 171.893 69.605 171.583 69.375 171.233 69.205 C 170.883 69.035 170.503 68.95 170.093 68.95 C 169.833 68.95 169.563 69 169.283 69.1 C 169.003 69.2 168.733 69.345 168.473 69.535 C 168.223 69.715 168.013 69.92 167.843 70.15 C 167.673 70.38 167.568 70.625 167.528 70.885 L 167.528 73.285 C 167.688 73.655 167.903 73.99 168.173 74.29 C 168.443 74.58 168.753 74.815 169.103 74.995 C 169.463 75.165 169.833 75.25 170.213 75.25 Z M 175.136 73.75 C 175.136 73.26 175.276 72.84 175.556 72.49 C 175.836 72.13 176.221 71.855 176.711 71.665 C 177.211 71.465 177.786 71.365 178.436 71.365 C 178.816 71.365 179.211 71.395 179.621 71.455 C 180.031 71.515 180.396 71.605 180.716 71.725 L 180.716 71.065 C 180.716 70.405 180.521 69.88 180.131 69.49 C 179.741 69.1 179.201 68.905 178.511 68.905 C 178.091 68.905 177.676 68.985 177.266 69.145 C 176.866 69.295 176.446 69.52 176.006 69.82 L 175.616 69.1 C 176.126 68.75 176.626 68.49 177.116 68.32 C 177.606 68.14 178.106 68.05 178.616 68.05 C 179.576 68.05 180.336 68.325 180.896 68.875 C 181.456 69.425 181.736 70.185 181.736 71.155 L 181.736 74.77 C 181.736 74.91 181.766 75.015 181.826 75.085 C 181.886 75.145 181.981 75.18 182.111 75.19 L 182.111 76 C 182.001 76.01 181.906 76.02 181.826 76.03 C 181.746 76.04 181.686 76.04 181.646 76.03 C 181.396 76.02 181.206 75.94 181.076 75.79 C 180.946 75.64 180.876 75.48 180.866 75.31 L 180.851 74.74 C 180.501 75.19 180.046 75.54 179.486 75.79 C 178.926 76.03 178.356 76.15 177.776 76.15 C 177.276 76.15 176.821 76.045 176.411 75.835 C 176.011 75.615 175.696 75.325 175.466 74.965 C 175.246 74.595 175.136 74.19 175.136 73.75 Z M 180.371 74.35 C 180.481 74.21 180.566 74.075 180.626 73.945 C 180.686 73.815 180.716 73.7 180.716 73.6 L 180.716 72.46 C 180.376 72.33 180.021 72.23 179.651 72.16 C 179.291 72.09 178.926 72.055 178.556 72.055 C 177.826 72.055 177.236 72.2 176.786 72.49 C 176.336 72.78 176.111 73.175 176.111 73.675 C 176.111 73.965 176.186 74.24 176.336 74.5 C 176.486 74.75 176.706 74.96 176.996 75.13 C 177.286 75.29 177.626 75.37 178.016 75.37 C 178.506 75.37 178.961 75.275 179.381 75.085 C 179.811 74.895 180.141 74.65 180.371 74.35 Z M 187.839 69.085 C 187.159 69.105 186.559 69.295 186.039 69.655 C 185.529 70.015 185.169 70.51 184.959 71.14 L 184.959 76 L 183.939 76 L 183.939 68.185 L 184.899 68.185 L 184.899 70.06 C 185.169 69.51 185.524 69.065 185.964 68.725 C 186.414 68.385 186.889 68.195 187.389 68.155 C 187.489 68.145 187.574 68.14 187.644 68.14 C 187.724 68.14 187.789 68.145 187.839 68.155 L 187.839 69.085 Z M 188.539 73.75 C 188.539 73.26 188.679 72.84 188.959 72.49 C 189.239 72.13 189.624 71.855 190.114 71.665 C 190.614 71.465 191.189 71.365 191.839 71.365 C 192.219 71.365 192.614 71.395 193.024 71.455 C 193.434 71.515 193.799 71.605 194.119 71.725 L 194.119 71.065 C 194.119 70.405 193.924 69.88 193.534 69.49 C 193.144 69.1 192.604 68.905 191.914 68.905 C 191.494 68.905 191.079 68.985 190.669 69.145 C 190.269 69.295 189.849 69.52 189.409 69.82 L 189.019 69.1 C 189.529 68.75 190.029 68.49 190.519 68.32 C 191.009 68.14 191.509 68.05 192.019 68.05 C 192.979 68.05 193.739 68.325 194.299 68.875 C 194.859 69.425 195.139 70.185 195.139 71.155 L 195.139 74.77 C 195.139 74.91 195.169 75.015 195.229 75.085 C 195.289 75.145 195.384 75.18 195.514 75.19 L 195.514 76 C 195.404 76.01 195.309 76.02 195.229 76.03 C 195.149 76.04 195.089 76.04 195.049 76.03 C 194.799 76.02 194.609 75.94 194.479 75.79 C 194.349 75.64 194.279 75.48 194.269 75.31 L 194.254 74.74 C 193.904 75.19 193.449 75.54 192.889 75.79 C 192.329 76.03 191.759 76.15 191.179 76.15 C 190.679 76.15 190.224 76.045 189.814 75.835 C 189.414 75.615 189.099 75.325 188.869 74.965 C 188.649 74.595 188.539 74.19 188.539 73.75 Z M 193.774 74.35 C 193.884 74.21 193.969 74.075 194.029 73.945 C 194.089 73.815 194.119 73.7 194.119 73.6 L 194.119 72.46 C 193.779 72.33 193.424 72.23 193.054 72.16 C 192.694 72.09 192.329 72.055 191.959 72.055 C 191.229 72.055 190.639 72.2 190.189 72.49 C 189.739 72.78 189.514 73.175 189.514 73.675 C 189.514 73.965 189.589 74.24 189.739 74.5 C 189.889 74.75 190.109 74.96 190.399 75.13 C 190.689 75.29 191.029 75.37 191.419 75.37 C 191.909 75.37 192.364 75.275 192.784 75.085 C 193.214 74.895 193.544 74.65 193.774 74.35 Z M 203.731 76.15 C 203.091 76.15 202.496 76.045 201.946 75.835 C 201.396 75.625 200.921 75.305 200.521 74.875 L 200.941 74.155 C 201.381 74.565 201.821 74.865 202.261 75.055 C 202.711 75.235 203.186 75.325 203.686 75.325 C 204.296 75.325 204.791 75.205 205.171 74.965 C 205.551 74.715 205.741 74.36 205.741 73.9 C 205.741 73.59 205.646 73.355 205.456 73.195 C 205.276 73.025 205.011 72.89 204.661 72.79 C 204.321 72.68 203.911 72.565 203.431 72.445 C 202.891 72.295 202.436 72.14 202.066 71.98 C 201.706 71.81 201.431 71.6 201.241 71.35 C 201.061 71.09 200.971 70.755 200.971 70.345 C 200.971 69.835 201.096 69.415 201.346 69.085 C 201.606 68.745 201.956 68.49 202.396 68.32 C 202.846 68.14 203.346 68.05 203.896 68.05 C 204.496 68.05 205.026 68.145 205.486 68.335 C 205.946 68.525 206.321 68.79 206.611 69.13 L 206.116 69.82 C 205.836 69.5 205.501 69.265 205.111 69.115 C 204.731 68.955 204.306 68.875 203.836 68.875 C 203.516 68.875 203.211 68.92 202.921 69.01 C 202.631 69.09 202.391 69.23 202.201 69.43 C 202.021 69.62 201.931 69.885 201.931 70.225 C 201.931 70.505 202.001 70.725 202.141 70.885 C 202.281 71.035 202.491 71.165 202.771 71.275 C 203.051 71.375 203.396 71.485 203.806 71.605 C 204.396 71.765 204.911 71.93 205.351 72.1 C 205.791 72.26 206.131 72.47 206.371 72.73 C 206.611 72.99 206.731 73.355 206.731 73.825 C 206.731 74.555 206.456 75.125 205.906 75.535 C 205.356 75.945 204.631 76.15 203.731 76.15 Z M 208.342 72.775 L 208.342 68.185 L 209.362 68.185 L 209.362 72.595 C 209.362 73.485 209.512 74.15 209.812 74.59 C 210.122 75.03 210.577 75.25 211.177 75.25 C 211.577 75.25 211.962 75.165 212.332 74.995 C 212.712 74.815 213.047 74.565 213.337 74.245 C 213.627 73.915 213.847 73.535 213.997 73.105 L 213.997 68.185 L 215.017 68.185 L 215.017 74.77 C 215.017 74.91 215.047 75.015 215.107 75.085 C 215.167 75.145 215.257 75.18 215.377 75.19 L 215.377 76 C 215.257 76.01 215.162 76.015 215.092 76.015 C 215.022 76.025 214.957 76.03 214.897 76.03 C 214.697 76.01 214.522 75.93 214.372 75.79 C 214.232 75.65 214.157 75.48 214.147 75.28 L 214.117 74.23 C 213.777 74.83 213.312 75.3 212.722 75.64 C 212.142 75.98 211.512 76.15 210.832 76.15 C 210.012 76.15 209.392 75.865 208.972 75.295 C 208.552 74.725 208.342 73.885 208.342 72.775 Z M 216.693 73.75 C 216.693 73.26 216.833 72.84 217.113 72.49 C 217.393 72.13 217.778 71.855 218.268 71.665 C 218.768 71.465 219.343 71.365 219.993 71.365 C 220.373 71.365 220.768 71.395 221.178 71.455 C 221.588 71.515 221.953 71.605 222.273 71.725 L 222.273 71.065 C 222.273 70.405 222.078 69.88 221.688 69.49 C 221.298 69.1 220.758 68.905 220.068 68.905 C 219.648 68.905 219.233 68.985 218.823 69.145 C 218.423 69.295 218.003 69.52 217.563 69.82 L 217.173 69.1 C 217.683 68.75 218.183 68.49 218.673 68.32 C 219.163 68.14 219.663 68.05 220.173 68.05 C 221.133 68.05 221.893 68.325 222.453 68.875 C 223.013 69.425 223.293 70.185 223.293 71.155 L 223.293 74.77 C 223.293 74.91 223.323 75.015 223.383 75.085 C 223.443 75.145 223.538 75.18 223.668 75.19 L 223.668 76 C 223.558 76.01 223.463 76.02 223.383 76.03 C 223.303 76.04 223.243 76.04 223.203 76.03 C 222.953 76.02 222.763 75.94 222.633 75.79 C 222.503 75.64 222.433 75.48 222.423 75.31 L 222.408 74.74 C 222.058 75.19 221.603 75.54 221.043 75.79 C 220.483 76.03 219.913 76.15 219.333 76.15 C 218.833 76.15 218.378 76.045 217.968 75.835 C 217.568 75.615 217.253 75.325 217.023 74.965 C 216.803 74.595 216.693 74.19 216.693 73.75 Z M 221.928 74.35 C 222.038 74.21 222.123 74.075 222.183 73.945 C 222.243 73.815 222.273 73.7 222.273 73.6 L 222.273 72.46 C 221.933 72.33 221.578 72.23 221.208 72.16 C 220.848 72.09 220.483 72.055 220.113 72.055 C 219.383 72.055 218.793 72.2 218.343 72.49 C 217.893 72.78 217.668 73.175 217.668 73.675 C 217.668 73.965 217.743 74.24 217.893 74.5 C 218.043 74.75 218.263 74.96 218.553 75.13 C 218.843 75.29 219.183 75.37 219.573 75.37 C 220.063 75.37 220.518 75.275 220.938 75.085 C 221.368 74.895 221.698 74.65 221.928 74.35 Z M 228.062 76.15 C 227.422 76.15 226.827 76.045 226.277 75.835 C 225.727 75.625 225.252 75.305 224.852 74.875 L 225.272 74.155 C 225.712 74.565 226.152 74.865 226.592 75.055 C 227.042 75.235 227.517 75.325 228.017 75.325 C 228.627 75.325 229.122 75.205 229.502 74.965 C 229.882 74.715 230.072 74.36 230.072 73.9 C 230.072 73.59 229.977 73.355 229.787 73.195 C 229.607 73.025 229.342 72.89 228.992 72.79 C 228.652 72.68 228.242 72.565 227.762 72.445 C 227.222 72.295 226.767 72.14 226.397 71.98 C 226.037 71.81 225.762 71.6 225.572 71.35 C 225.392 71.09 225.302 70.755 225.302 70.345 C 225.302 69.835 225.427 69.415 225.677 69.085 C 225.937 68.745 226.287 68.49 226.727 68.32 C 227.177 68.14 227.677 68.05 228.227 68.05 C 228.827 68.05 229.357 68.145 229.817 68.335 C 230.277 68.525 230.652 68.79 230.942 69.13 L 230.447 69.82 C 230.167 69.5 229.832 69.265 229.442 69.115 C 229.062 68.955 228.637 68.875 228.167 68.875 C 227.847 68.875 227.542 68.92 227.252 69.01 C 226.962 69.09 226.722 69.23 226.532 69.43 C 226.352 69.62 226.262 69.885 226.262 70.225 C 226.262 70.505 226.332 70.725 226.472 70.885 C 226.612 71.035 226.822 71.165 227.102 71.275 C 227.382 71.375 227.727 71.485 228.137 71.605 C 228.727 71.765 229.242 71.93 229.682 72.1 C 230.122 72.26 230.462 72.47 230.702 72.73 C 230.942 72.99 231.062 73.355 231.062 73.825 C 231.062 74.555 230.787 75.125 230.237 75.535 C 229.687 75.945 228.962 76.15 228.062 76.15 Z M 238.486 76 L 235.321 68.185 L 236.386 68.185 L 239.056 74.98 L 241.741 68.185 L 242.746 68.185 L 239.581 76 L 238.486 76 Z M 244.159 76 L 244.159 68.185 L 245.179 68.185 L 245.179 76 L 244.159 76 Z M 244.159 66.55 L 244.159 65.05 L 245.179 65.05 L 245.179 66.55 L 244.159 66.55 Z M 246.796 73.75 C 246.796 73.26 246.936 72.84 247.216 72.49 C 247.496 72.13 247.881 71.855 248.371 71.665 C 248.871 71.465 249.446 71.365 250.096 71.365 C 250.476 71.365 250.871 71.395 251.281 71.455 C 251.691 71.515 252.056 71.605 252.376 71.725 L 252.376 71.065 C 252.376 70.405 252.181 69.88 251.791 69.49 C 251.401 69.1 250.861 68.905 250.171 68.905 C 249.751 68.905 249.336 68.985 248.926 69.145 C 248.526 69.295 248.106 69.52 247.666 69.82 L 247.276 69.1 C 247.786 68.75 248.286 68.49 248.776 68.32 C 249.266 68.14 249.766 68.05 250.276 68.05 C 251.236 68.05 251.996 68.325 252.556 68.875 C 253.116 69.425 253.396 70.185 253.396 71.155 L 253.396 74.77 C 253.396 74.91 253.426 75.015 253.486 75.085 C 253.546 75.145 253.641 75.18 253.771 75.19 L 253.771 76 C 253.661 76.01 253.566 76.02 253.486 76.03 C 253.406 76.04 253.346 76.04 253.306 76.03 C 253.056 76.02 252.866 75.94 252.736 75.79 C 252.606 75.64 252.536 75.48 252.526 75.31 L 252.511 74.74 C 252.161 75.19 251.706 75.54 251.146 75.79 C 250.586 76.03 250.016 76.15 249.436 76.15 C 248.936 76.15 248.481 76.045 248.071 75.835 C 247.671 75.615 247.356 75.325 247.126 74.965 C 246.906 74.595 246.796 74.19 246.796 73.75 Z M 252.031 74.35 C 252.141 74.21 252.226 74.075 252.286 73.945 C 252.346 73.815 252.376 73.7 252.376 73.6 L 252.376 72.46 C 252.036 72.33 251.681 72.23 251.311 72.16 C 250.951 72.09 250.586 72.055 250.216 72.055 C 249.486 72.055 248.896 72.2 248.446 72.49 C 247.996 72.78 247.771 73.175 247.771 73.675 C 247.771 73.965 247.846 74.24 247.996 74.5 C 248.146 74.75 248.366 74.96 248.656 75.13 C 248.946 75.29 249.286 75.37 249.676 75.37 C 250.166 75.37 250.621 75.275 251.041 75.085 C 251.471 74.895 251.801 74.65 252.031 74.35 Z M 258.735 76.105 C 258.205 76.105 257.715 75.995 257.265 75.775 C 256.815 75.555 256.425 75.26 256.095 74.89 C 255.775 74.51 255.525 74.08 255.345 73.6 C 255.165 73.12 255.075 72.625 255.075 72.115 C 255.075 71.565 255.16 71.05 255.33 70.57 C 255.51 70.08 255.76 69.645 256.08 69.265 C 256.41 68.885 256.795 68.59 257.235 68.38 C 257.675 68.16 258.165 68.05 258.705 68.05 C 259.375 68.05 259.955 68.22 260.445 68.56 C 260.945 68.9 261.365 69.32 261.705 69.82 L 261.705 68.185 L 262.62 68.185 L 262.62 76.03 C 262.62 76.75 262.445 77.355 262.095 77.845 C 261.755 78.345 261.29 78.72 260.7 78.97 C 260.12 79.22 259.485 79.345 258.795 79.345 C 257.905 79.345 257.185 79.185 256.635 78.865 C 256.085 78.545 255.635 78.115 255.285 77.575 L 255.915 77.08 C 256.225 77.57 256.635 77.935 257.145 78.175 C 257.665 78.415 258.215 78.535 258.795 78.535 C 259.305 78.535 259.77 78.44 260.19 78.25 C 260.62 78.07 260.96 77.795 261.21 77.425 C 261.47 77.055 261.6 76.59 261.6 76.03 L 261.6 74.485 C 261.3 74.975 260.89 75.37 260.37 75.67 C 259.85 75.96 259.305 76.105 258.735 76.105 Z M 259.02 75.25 C 259.33 75.25 259.625 75.195 259.905 75.085 C 260.195 74.975 260.46 74.83 260.7 74.65 C 260.94 74.46 261.14 74.25 261.3 74.02 C 261.46 73.79 261.56 73.555 261.6 73.315 L 261.6 70.9 C 261.45 70.52 261.235 70.185 260.955 69.895 C 260.675 69.595 260.355 69.365 259.995 69.205 C 259.645 69.035 259.28 68.95 258.9 68.95 C 258.46 68.95 258.065 69.045 257.715 69.235 C 257.375 69.415 257.085 69.66 256.845 69.97 C 256.615 70.27 256.435 70.61 256.305 70.99 C 256.175 71.37 256.11 71.75 256.11 72.13 C 256.11 72.55 256.185 72.95 256.335 73.33 C 256.485 73.7 256.69 74.035 256.95 74.335 C 257.22 74.625 257.53 74.85 257.88 75.01 C 258.24 75.17 258.62 75.25 259.02 75.25 Z M 268.247 76.15 C 267.687 76.15 267.167 76.045 266.687 75.835 C 266.207 75.615 265.792 75.32 265.442 74.95 C 265.092 74.57 264.817 74.135 264.617 73.645 C 264.427 73.155 264.332 72.63 264.332 72.07 C 264.332 71.34 264.497 70.67 264.827 70.06 C 265.167 69.45 265.632 68.965 266.222 68.605 C 266.812 68.235 267.482 68.05 268.232 68.05 C 269.002 68.05 269.672 68.235 270.242 68.605 C 270.822 68.975 271.277 69.465 271.607 70.075 C 271.937 70.675 272.102 71.335 272.102 72.055 C 272.102 72.135 272.102 72.215 272.102 72.295 C 272.102 72.365 272.097 72.42 272.087 72.46 L 265.397 72.46 C 265.447 73.02 265.602 73.52 265.862 73.96 C 266.132 74.39 266.477 74.735 266.897 74.995 C 267.327 75.245 267.792 75.37 268.292 75.37 C 268.802 75.37 269.282 75.24 269.732 74.98 C 270.192 74.72 270.512 74.38 270.692 73.96 L 271.577 74.2 C 271.417 74.57 271.172 74.905 270.842 75.205 C 270.512 75.505 270.122 75.74 269.672 75.91 C 269.232 76.07 268.757 76.15 268.247 76.15 Z M 265.367 71.725 L 271.142 71.725 C 271.102 71.155 270.947 70.655 270.677 70.225 C 270.417 69.795 270.072 69.46 269.642 69.22 C 269.222 68.97 268.757 68.845 268.247 68.845 C 267.737 68.845 267.272 68.97 266.852 69.22 C 266.432 69.46 266.087 69.8 265.817 70.24 C 265.557 70.67 265.407 71.165 265.367 71.725 Z M 280.246 76 L 279.226 76 L 279.226 71.635 C 279.226 70.715 279.091 70.045 278.821 69.625 C 278.551 69.195 278.126 68.98 277.546 68.98 C 277.146 68.98 276.751 69.08 276.361 69.28 C 275.971 69.47 275.626 69.735 275.326 70.075 C 275.036 70.405 274.826 70.785 274.696 71.215 L 274.696 76 L 273.676 76 L 273.676 68.185 L 274.606 68.185 L 274.606 69.955 C 274.816 69.575 275.091 69.245 275.431 68.965 C 275.771 68.675 276.156 68.45 276.586 68.29 C 277.016 68.13 277.461 68.05 277.921 68.05 C 278.351 68.05 278.716 68.13 279.016 68.29 C 279.316 68.45 279.556 68.68 279.736 68.98 C 279.916 69.27 280.046 69.625 280.126 70.045 C 280.206 70.455 280.246 70.915 280.246 71.425 L 280.246 76 Z M 284.986 76.15 C 284.346 76.15 283.751 76.045 283.201 75.835 C 282.651 75.625 282.176 75.305 281.776 74.875 L 282.196 74.155 C 282.636 74.565 283.076 74.865 283.516 75.055 C 283.966 75.235 284.441 75.325 284.941 75.325 C 285.551 75.325 286.046 75.205 286.426 74.965 C 286.806 74.715 286.996 74.36 286.996 73.9 C 286.996 73.59 286.901 73.355 286.711 73.195 C 286.531 73.025 286.266 72.89 285.916 72.79 C 285.576 72.68 285.166 72.565 284.686 72.445 C 284.146 72.295 283.691 72.14 283.321 71.98 C 282.961 71.81 282.686 71.6 282.496 71.35 C 282.316 71.09 282.226 70.755 282.226 70.345 C 282.226 69.835 282.351 69.415 282.601 69.085 C 282.861 68.745 283.211 68.49 283.651 68.32 C 284.101 68.14 284.601 68.05 285.151 68.05 C 285.751 68.05 286.281 68.145 286.741 68.335 C 287.201 68.525 287.576 68.79 287.866 69.13 L 287.371 69.82 C 287.091 69.5 286.756 69.265 286.366 69.115 C 285.986 68.955 285.561 68.875 285.091 68.875 C 284.771 68.875 284.466 68.92 284.176 69.01 C 283.886 69.09 283.646 69.23 283.456 69.43 C 283.276 69.62 283.186 69.885 283.186 70.225 C 283.186 70.505 283.256 70.725 283.396 70.885 C 283.536 71.035 283.746 71.165 284.026 71.275 C 284.306 71.375 284.651 71.485 285.061 71.605 C 285.651 71.765 286.166 71.93 286.606 72.1 C 287.046 72.26 287.386 72.47 287.626 72.73 C 287.866 72.99 287.986 73.355 287.986 73.825 C 287.986 74.555 287.711 75.125 287.161 75.535 C 286.611 75.945 285.886 76.15 284.986 76.15 Z" style="fill: rgb(14, 24, 86);"></path>
  </g>
</svg>